<svg xmlns="http://www.w3.org/2000/svg" width="293.326" height="56.458" viewBox="0 0 293.326 56.458"><defs><style>.a{font-size:35px;font-family:Marigold;}.b{fill:none;stroke:#050505;stroke-width:0.5px;}</style></defs><text class="a" transform="translate(82 43.458)"><tspan x="-81.603" y="0">Blogvelers</tspan></text><path d="M32.191.218.845,18.3a1.624,1.624,0,0,0,.149,2.922L8.182,24.24,27.612,7.117a.405.405,0,0,1,.582.561L11.9,27.527v5.444a1.623,1.623,0,0,0,2.874,1.069l4.294-5.228,8.427,3.53a1.628,1.628,0,0,0,2.232-1.231L34.6,1.9A1.623,1.623,0,0,0,32.191.218Z" transform="translate(261.225 0) rotate(22)"/><path class="b" d="M1072.123,302.768s-6.291,11.226-30.149-4.3-28.537,7.026-28.539,12.933,8.793,8.729,9.637,0-45.225-20.185-47.063-12.933" transform="translate(-812 -267.542)"/></svg>