<svg xmlns="http://www.w3.org/2000/svg" xmlns:xlink="http://www.w3.org/1999/xlink" width="1892.335" height="1249.786" viewBox="0 0 1892.335 1249.786"><defs><style>.a,.b,.c{stroke:#414141;stroke-width:0.3px;}.a{fill:url(#a);}.b{fill:url(#p);}.c{fill:url(#q);}</style><linearGradient id="a" x1="1" y1="0.62" x2="0" y2="0.212" gradientUnits="objectBoundingBox"><stop offset="0" stop-color="#3c3c3c"/><stop offset="0.217" stop-color="#696969"/><stop offset="0.478" stop-color="#fff"/><stop offset="0.778" stop-color="#464646"/><stop offset="1" stop-color="#333"/></linearGradient><linearGradient id="p" x1="1" y1="0.62" x2="0" y2="0.212" gradientUnits="objectBoundingBox"><stop offset="0" stop-color="#3c3c3c"/><stop offset="0.217" stop-color="#e6e6e6"/><stop offset="0.478" stop-color="#fff"/><stop offset="0.778" stop-color="#b5b5b5"/><stop offset="1" stop-color="#333"/></linearGradient><linearGradient id="q" x1="1" y1="0.62" x2="0" y2="0.212" gradientUnits="objectBoundingBox"><stop offset="0" stop-color="#3c3c3c"/><stop offset="0.217" stop-color="#696969"/><stop offset="0.478" stop-color="#cecece"/><stop offset="0.778" stop-color="#121212"/><stop offset="1" stop-color="#333"/></linearGradient></defs><g transform="translate(-93.376 35.545)"><g transform="translate(93.56 -35.395)"><path class="a" d="M1800.768,758.463c-118.655-23.4-214.077-109.423-283.624-255.679-49.213-103.492-99.874-178.822-150.579-223.911-45.947-40.861-90.692-54.859-129.366-40.5-53.959,20.03-92.683,94.347-106.257,203.9-14.669,118.309.824,269.559,43.618,425.887,52.683,192.486,31.079,265.672,3.681,293.183-17.255,17.318-41.518,21.913-72.1,13.669-43.578-11.743-95.506-48.841-142.477-101.772-48.432-54.569-85-119.363-100.344-177.769C797.181,643.724,703.1,667.982,603.5,693.664c-78.787,20.313-160.255,41.323-236.983-68.7C227.815,426.077,146.733,153.589,112.488-54.4h-3.032C143.72,154,224.971,427.236,364.055,626.678c77.913,111.731,160.406,90.462,240.189,69.885,50.048-12.9,97.307-25.085,140.637-3.24,48.941,24.686,85.659,89.163,115.539,202.909,15.462,58.844,52.269,124.087,101,179,47.354,53.357,99.816,90.784,143.94,102.673a114.041,114.041,0,0,0,20.925,3.708c21.966,1.7,40.414-4.437,54.075-18.153,40.1-40.253,39.094-142.641-2.913-296.088-42.688-155.961-58.152-306.8-43.531-424.731,13.428-108.4,51.458-181.828,104.318-201.456,37.578-13.951,81.275-.145,126.34,39.928,50.4,44.819,100.827,119.833,149.861,222.957,69.98,147.162,166.126,233.745,285.766,257.332,39.06,7.7,92.429,10.513,159.278-3.224v-3.029C1908.076,765.878,1854.027,768.973,1800.768,758.463Z" transform="translate(-67.478 54.395)"/><path class="a" d="M1816.773,739.082c-118.956-21.6-216.651-98.569-290.363-228.762-107.229-189.38-218.693-278.184-305.83-243.637-55.062,21.834-94.558,90.753-111.211,194.054C1092,568.5,1101.618,706.323,1136.45,848.8c24.044,98.934,31.005,177.061,20.675,232.216-8.746,46.721-30.263,75.93-62.227,84.473-37.248,9.943-88.22-8.96-136.343-50.579-49.287-42.633-87.4-100.838-104.556-159.69-60.326-208.98-165.346-204.409-266.937-199.98-89.715,3.911-174.46,7.605-221-139.14S270.315,366.52,226.9,275.78C176.016,169.415,131.36,76,109.157-54.4h-3.04C128.347,76.651,173.148,170.358,224.2,277.072c43.372,90.655,92.53,193.4,139,339.936C410.437,765.941,496.288,762.194,587.2,758.233c100.413-4.381,204.25-8.91,263.924,197.82,17.318,59.4,55.762,118.127,105.475,161.121,37.269,32.233,76.355,51.017,109.756,53.6a87.388,87.388,0,0,0,29.318-2.39c33.157-8.857,55.43-38.88,64.406-86.821,10.4-55.564,3.433-134.119-20.712-233.47-34.739-142.1-44.344-279.494-27.034-386.875,16.476-102.222,55.314-170.319,109.354-191.749,85.6-33.931,195.7,54.389,302.117,242.33,74.177,131,172.569,208.47,292.452,230.236,50.024,9.087,100.452,7.69,148.7-.011v-3.034C1916.871,746.7,1866.615,748.132,1816.773,739.082Z" transform="translate(-72.957 54.395)"/><path class="a" d="M1831.923,720.1c-119.049-19.687-218.558-87.734-295.753-202.246-63.8-94.627-126.274-161.42-185.7-198.52-53.832-33.612-105-41.782-147.962-23.638-54.867,23.17-95.675,88.421-114.913,183.734-19.608,97.157-15.607,221.458,11.26,350,21.153,102.367,24.221,184.04,9.105,242.747-12.689,49.279-38.046,80.269-73.324,89.62-69.468,18.419-157.992-50.188-189.446-146.835-24.118-74.113-61.113-124.433-113.1-153.841-45.889-25.959-97.318-32.843-147.057-39.5-52.689-7.046-102.454-13.706-141.809-42.089-44.246-31.906-68.792-86.686-77.256-172.4-25.082-254.124-86.86-327.648-146.6-398.748-48.382-57.585-94.08-111.971-113.738-261.713-.048-.354-.1-.718-.143-1.072H102.47c.063.486.129.98.193,1.463C122.434,97.674,168.4,152.39,217.077,210.316c59.446,70.752,120.918,143.914,145.91,397.116,18.763,190.017,117.311,203.2,221.65,217.161,100.463,13.447,204.348,27.348,257.7,191.3,27.242,83.72,96.966,146.642,160.913,151.575a96.05,96.05,0,0,0,32.146-2.765c25.378-6.729,59.066-28.114,75.452-91.772,15.235-59.151,12.182-141.281-9.066-244.1-54.239-259.482-11.39-482.532,101.883-530.369,42.63-18,91.479-10.127,145.211,23.418,59.069,36.878,121.246,103.378,184.8,197.654,77.678,115.225,177.861,183.7,297.765,203.529,47.006,7.769,94.154,7.46,139.491,2.025v-3.008C1925.747,727.516,1878.749,727.848,1831.923,720.1Z" transform="translate(-78.941 54.395)"/><path class="a" d="M1808.665,694.678c-102.681-23.632-190.965-80.594-262.4-169.3C1407.933,353.6,1278.8,282.694,1182.641,325.72c-54.886,24.562-95.437,84.248-117.269,172.614-21.657,87.658-22.956,195.446-3.768,311.714,17.31,106.251,15.625,196.32-4.864,260.467-17.112,53.563-47.148,88.521-84.586,98.445-52.879,14.009-109.845-25.623-135.432-94.268-46.673-125.215-146.19-151.461-242.436-176.847-122.991-32.434-239.159-63.077-228.1-299.759,15.327-328.242-50.732-355.984-120.67-385.354-55.02-23.107-111.918-47-136.161-217.415-2.01-14.112-4.587-30.844-7.708-49.712H98.608c3.156,19.043,5.754,35.917,7.78,50.132,24.483,172.1,82.175,196.328,137.964,219.757,68.945,28.953,134.067,56.3,118.835,382.452-11.165,239.1,106.14,270.045,230.336,302.8,95.5,25.185,194.263,51.228,240.395,174.99,21.5,57.7,64.9,95.287,109.911,98.762a87.04,87.04,0,0,0,29.1-2.638c38.46-10.2,69.236-45.865,86.667-100.428,20.635-64.6,22.354-155.15,4.97-261.869-19.127-115.872-17.844-223.243,3.718-310.51,21.6-87.433,61.572-146.428,115.586-170.6,94.8-42.427,222.667,28.177,360.069,198.8,71.871,89.253,160.73,146.565,264.106,170.348,52.794,12.147,109.441,15.565,169.236,10.354V704.95C1917.683,710.166,1861.247,706.775,1808.665,694.678Z" transform="translate(-85.277 54.395)"/><path class="a" d="M1828.368,679.021c-104.63-19.964-195.5-69.125-270.071-146.114-199.032-205.478-325.06-209.035-395.74-175.841C1056.469,406.9,1002.988,577.084,1026.3,790.646c15.507,141.949-2.488,233.814-20.318,285.874-21.345,62.351-54.516,103.714-91.011,113.474-33.812,9.055-65.5-11.73-84.785-55.591-39.271-89.35-125.635-119.252-217.074-150.912C470.841,934.232,323.727,883.3,368.314,588.973c40.94-270.285,19.243-331.91-4.241-355.4-19.977-19.983-48.962-15.6-79.648-10.959-65.039,9.837-138.77,20.986-169.408-178.656-3.391-22.069-9.612-56.074-18.4-98.353H93.56c8.841,42.5,15.095,76.664,18.493,98.8,13.822,90.061,37.9,145.681,73.6,170.039,31.357,21.39,67.406,15.937,99.216,11.126,29.912-4.524,58.176-8.8,77.079,10.119,34.143,34.15,35.191,142.969,3.4,352.833C320.394,885.31,468.705,936.665,612.133,986.321c90.8,31.438,176.564,61.139,215.312,149.285,15.934,36.258,40.245,57.212,67.427,59.306a61.8,61.8,0,0,0,20.875-2.023c37.47-10.03,71.4-52.089,93.071-115.394,17.923-52.356,36.025-144.677,20.463-287.176-23.178-212.268,29.635-381.266,134.547-430.543,47.019-22.082,102.612-20.239,165.23,5.482,69.069,28.367,145.475,85.474,227.085,169.73,75.022,77.454,166.44,126.9,271.706,146.98,49.615,9.462,102.377,12.393,157.709,8.91v-3.005C1930.4,691.361,1877.809,688.448,1828.368,679.021Z" transform="translate(-93.56 54.395)"/></g><path class="a" d="M487.035,272.875c11.247,8.429,25.848,7.938,32.616-1.091s3.14-23.181-8.107-31.61c-6.766-5.07-14.751-6.911-21.509-5.6l46.913-90.977-5.979-2.469L478.93,241.265C472.159,250.3,475.793,264.451,487.035,272.875Z" transform="translate(626.712 320.802)"/><path class="a" d="M185.778,125.735c-6.937-7.376-7.769-17.87-1.846-23.447s16.352-4.12,23.3,3.259a20.033,20.033,0,0,1,5.744,14.955l61.379-40.94,2.25,4.085-67.527,45.347C203.152,134.568,192.721,133.105,185.778,125.735Z" transform="translate(141.796 219.791)"/><path class="a" d="M601.6,138.643c8.086-3.515,16.927-1.1,19.753,5.392s-1.445,14.606-9.533,18.118a17.434,17.434,0,0,1-13.941.309L613.33,224.8l-4.009.642-17.255-68.673C589.247,150.268,593.519,142.158,601.6,138.643Z" transform="translate(816.509 314.082)"/><path class="a" d="M384.4,372.376c2.952,8.707,11.012,13.84,18,11.471s10.265-11.347,7.312-20.057a18.169,18.169,0,0,0-9.536-10.978l58.952-31.75-2.313-3.544-65.108,34.8C384.723,354.69,381.451,363.672,384.4,372.376Z" transform="translate(475.424 610.225)"/><path class="a" d="M176.758,188.423c11.012-2.96,21.866,1.814,24.245,10.655s-4.627,18.411-15.641,21.369c-6.626,1.782-13.193.761-17.9-2.261l7.917,82.688-5.247.055L161.116,209.8C158.742,200.951,165.743,191.381,176.758,188.423Z" transform="translate(110.086 396.969)"/><path class="a" d="M536.573,418.753c10.331-8.4,13.246-21.926,6.5-30.221s-20.577-8.229-30.915.169c-6.219,5.049-9.747,11.96-10.106,18.475l-72.8-64.06-3.644,4.925,80.039,70.881C512.4,427.224,526.237,427.143,536.573,418.753Z" transform="translate(544.822 652.224)"/><path class="a" d="M218.533,217.439c2.2,7.634,8.947,12.393,15.081,10.629s9.317-9.383,7.117-17.02a15.7,15.7,0,0,0-7.788-9.863l52.174-25.024-1.856-3.15L225.655,200.42C219.523,202.186,216.339,209.8,218.533,217.439Z" transform="translate(203.914 373.121)"/><path class="a" d="M450.387,299.63c-9.01-23.989-9.62-38.215-9.071-46.657l-5.163-2.247-28.164,83.5c-3.293-4.988-9.28-8.865-16.544-10.053-12.074-1.975-23.088,4.209-24.607,13.814s7.051,18.987,19.122,20.965,23.088-4.215,24.6-13.816l21.462-64.311c1.386,3.8,4.014,8.59,8.617,14.559,11.738,15.2,1.933,33.572-5.538,39.318C435.1,334.705,459.392,323.619,450.387,299.63Z" transform="translate(242.103 500.633)"/><path class="a" d="M287.554,261.174c2.234-26.466,7.988-40.108,12.264-47.806l-3.84-4.355-63.524,66.331c-.863-6.121-4.751-12.359-11.028-16.624-10.431-7.088-23.5-6.042-29.188,2.334s-1.849,20.91,8.585,28,23.495,6.037,29.186-2.34l48.709-51.178c-.393,4.18-.063,9.816,1.6,17.421,4.23,19.375-13.125,32.41-22.682,34.578C257.634,287.535,285.322,287.635,287.554,261.174Z" transform="translate(157.593 432.193)"/><path class="a" d="M221.159,45.747c-16.069-10.677-22.74-19.111-26.146-24.53l-4.114.922L210.9,85.786A18.11,18.11,0,0,0,196.465,87c-8.16,4.159-12.068,12.845-8.725,19.4s12.665,8.49,20.828,4.328,12.068-12.845,8.725-19.4L201.747,42.407A42.038,42.038,0,0,0,213.4,47.485c13.814,4.083,16.043,19.7,14.081,26.534C227.478,74.019,237.225,56.426,221.159,45.747Z" transform="translate(152.566 124.062)"/><path class="b" d="M471.983,141.99c-19.861,7.286-31.647,7.719-38.648,7.22l-1.854,4.238,69.267,23.572a19.878,19.878,0,0,0-8.295,13.552c-1.606,9.919,3.539,19,11.506,20.3s15.718-5.7,17.331-15.615-3.541-19.006-11.5-20.3L456.442,157a46.293,46.293,0,0,0,12.044-7.014c12.57-9.575,27.826-1.421,32.6,4.751C501.089,154.735,491.849,134.7,471.983,141.99Z" transform="translate(554.45 319.605)"/><path class="c" d="M294.787,359.572c-6.679-24.2-6.037-38.191-4.764-46.414l-4.827-2.609-16.8,38.6a8.487,8.487,0,0,0-2.128,4.9l-15.72,36.115c-2.762-5.144-8.252-9.406-15.216-11.136-11.569-2.873-22.822,2.327-25.127,11.62s5.2,19.148,16.769,22.021,22.819-2.327,25.124-11.619l15.839-36.7a63.247,63.247,0,0,0,6.116,11.82,24.744,24.744,0,0,1,3.922,15.779c-.372.283-.745.557-1.106.79,0,0,.4-.143,1.08-.446-1,10.016-7.584,18.644-12.7,21.969,0,0,19.415-7.08,19.061-25.642C290.923,383.867,298.959,374.7,294.787,359.572Zm-11.625,21.522c-5.054-18.324-5.913-30.786-5.482-39.332l.882-2.041c1.019,3.834,3.153,8.725,7.114,14.931,7.09,11.1,3.705,22.9-1.632,30.7A32.29,32.29,0,0,0,283.162,381.095Z" transform="translate(190.706 598.789)"/><path class="a" d="M588.236,423.764c1.062-25.085,5.958-38.2,9.692-45.64l-3.8-3.964-27.818,31.6a8.476,8.476,0,0,0-3.531,4.014l-26.03,29.558c-1.051-5.744-4.973-11.485-11.07-15.264-10.13-6.282-22.439-4.78-27.48,3.356s-.919,19.822,9.214,26.1,22.433,4.777,27.477-3.359l26.323-30.076a62.861,62.861,0,0,0,2.2,13.125,24.767,24.767,0,0,1-1.1,16.222c-.444.156-.882.3-1.3.412,0,0,.43-.013,1.164-.1-4.025,9.227-12.932,15.422-18.823,17.02,0,0,20.651-.79,26-18.565C577.113,445.706,587.573,439.44,588.236,423.764Zm-17.659,16.925c.8-18.992,3.805-31.116,6.834-39.12l1.466-1.674c-.206,3.964.327,9.274,2.2,16.394,3.346,12.742-3.494,22.938-10.962,28.721A33.215,33.215,0,0,0,570.577,440.689Z" transform="translate(660.394 703.16)"/><path class="a" d="M246.064,126.736c-24.937-2.929-37.652-8.786-44.79-13.066l-4.238,3.491,29.437,30.1a8.492,8.492,0,0,0,3.739,3.819l27.535,28.161c-5.8.621-11.82,4.1-16.045,9.9-7.019,9.633-6.436,22.016,1.3,27.651s19.7,2.4,26.717-7.241,6.436-22.016-1.3-27.652l-28.032-28.491a63.244,63.244,0,0,0,13.254-1.215,24.773,24.773,0,0,1,16.1,2.305c.119.454.232.9.314,1.326,0,0,.018-.428-.008-1.167,8.9,4.7,14.413,14.044,15.57,20.038,0,0,.747-20.651-16.576-27.313C267.113,139.461,261.644,128.566,246.064,126.736Zm15.559,18.871c-18.876-2.216-30.741-6.113-38.5-9.731l-1.561-1.587c3.94.5,9.272.367,16.513-.969,12.95-2.385,22.613,5.194,27.823,13.072A33.215,33.215,0,0,0,261.623,145.606Z" transform="translate(169.779 275.754)"/><path class="a" d="M459.356,411.588c-7.431-26.944-6.721-42.516-5.3-51.672l-5.374-2.9-18.7,42.968a9.448,9.448,0,0,0-2.371,5.458l-17.5,40.2c-3.074-5.728-9.187-10.476-16.938-12.4-12.876-3.2-25.4,2.588-27.971,12.932s5.786,21.319,18.665,24.517,25.4-2.591,27.971-12.934l17.632-40.853a70.335,70.335,0,0,0,6.808,13.159,27.511,27.511,0,0,1,4.365,17.564c-.414.317-.826.623-1.228.879,0,0,.446-.158,1.2-.5-1.117,11.149-8.443,20.754-14.139,24.456,0,0,21.612-7.883,21.219-28.544C455.057,438.63,464,428.423,459.356,411.588Zm-12.937,23.957c-5.628-20.4-6.581-34.272-6.106-43.784l.982-2.276c1.135,4.273,3.515,9.718,7.922,16.624,7.893,12.356,4.122,25.5-1.817,34.177A36.181,36.181,0,0,0,446.419,435.545Z" transform="translate(444.941 675.027)"/><path class="a" d="M550.647,349.479c29.566-2.63,45.69,1.083,54.991,4.3l4.056-5.06L568.364,321a9.981,9.981,0,0,0-5.247-3.518l-38.669-25.94c6.57-2.128,12.689-7.6,16.183-15.34,5.791-12.845,2.128-27.028-8.187-31.684s-23.376,1.988-29.173,14.833-2.131,27.028,8.186,31.684l39.321,26.2a74.422,74.422,0,0,0-15.044,4.611,29.274,29.274,0,0,1-19.183,1.212c-.254-.494-.488-.982-.681-1.452,0,0,.082.5.288,1.347-11.435-3.288-20.075-12.771-22.856-19.428,0,0,4.12,24.081,25.779,27.6C523.21,339.83,532.173,351.125,550.647,349.479ZM528.082,331.4c22.381-1.991,37.058-.351,46.905,1.965l2.189,1.46c-4.682.372-10.822,1.817-18.876,5.107-14.413,5.894-27.424-.549-35.36-8.408A38.681,38.681,0,0,0,528.082,331.4Z" transform="translate(655.886 488.006)"/><path class="a" d="M670.377,241.19c10.972,20.87,13.185,33.826,13.671,41.632L689,284.248l7.677-38.782a8,8,0,0,0,.975-4.92l7.18-36.284c3.57,4.167,9.459,6.974,16.2,7.17,11.186.314,20.463-6.71,20.722-15.7s-8.611-16.526-19.8-16.848-20.466,6.708-20.722,15.7l-7.172,36.841a59.024,59.024,0,0,0-7.988-9.62,23.271,23.271,0,0,1-6.755-13.69c.283-.338.57-.658.856-.945,0,0-.335.211-.9.626-1.088-9.388,3.219-18.625,7.246-22.7,0,0-16.386,10.391-12.346,27.345C669.054,218.128,663.516,228.155,670.377,241.19Zm6.351-22.072c8.308,15.8,11.593,27.06,12.911,34.988l-.4,2.047c-1.706-3.317-4.643-7.376-9.517-12.269-8.733-8.765-7.988-20.276-4.658-28.494A30.714,30.714,0,0,0,676.728,219.119Z" transform="translate(941.168 382.744)"/><path class="b" d="M489.947,268.334l-53.222,41.624c-5.934,3.235-7.473,11.849-3.43,19.238,4.027,7.386,12.108,10.74,18.034,7.5s7.468-11.852,3.436-19.23a16.635,16.635,0,0,0-10.333-8.4L471.969,287.4,516.6,330.1l-31.906,23.68c-6.013,3.09-7.761,11.662-3.914,19.143s11.828,11.046,17.841,7.957,7.764-11.656,3.914-19.14a16.6,16.6,0,0,0-10.109-8.651l49.092-36.686-2.575-2.9-.145.111-47.381-43.7Zm-10.439,13.122,4.8-3.779,45.236,42.81-4.777,3.547Z" transform="translate(553.725 529.524)"/><path class="a" d="M216.1,238.416l40.185-60.534c4.957-5.313,3.607-14.627-3.024-20.8s-16-6.85-20.952-1.534-3.6,14.627,3.018,20.791a17.912,17.912,0,0,0,13.4,5.065l-20.749,31.46-60.035-28.438,24.525-34.993c5.086-5.192,3.961-14.532-2.5-20.859s-15.818-7.259-20.907-2.07-3.969,14.529,2.5,20.862a17.875,17.875,0,0,0,13.254,5.4l-37.652,54.091,3.61,2.084.111-.164,63.18,28.528Zm6.2-16.93-3.618,5.485-60.69-28.338,3.671-5.237Z" transform="translate(87.934 291.303)"/><path class="a" d="M631.98,176.933l31.607,45.218-.108.114,2.155,2.514,36.773-37.407a14.214,14.214,0,0,0,6.174,9.575c5.9,4.125,13.37,3.623,16.682-1.117s1.212-11.923-4.69-16.048-13.373-3.628-16.687,1.114l-23.764,24.327L649.05,162.452,670.6,141.6a14.24,14.24,0,0,0,5.931,9.726c5.8,4.27,13.275,3.961,16.708-.695s1.511-11.891-4.288-16.161-13.275-3.964-16.708.692L630.813,175.5Zm42.057,34.523-3.56,3.644-31.09-43.3,3.758-3.639Z" transform="translate(881.508 304.94)"/><path class="a" d="M744.279,263.274l-39.115-17.318.026-.121-2.44-.8-9.385,39.577a11.031,11.031,0,0,0-7.941-3.874c-5.569-.37-10.325,2.96-10.619,7.431s3.982,8.4,9.552,8.767,10.328-2.958,10.621-7.434l6.008-25.679,37.782,15.913-5.934,22.478a11.046,11.046,0,0,0-7.84-4.067c-5.559-.51-10.4,2.7-10.806,7.164s3.768,8.493,9.33,9,10.4-2.7,10.809-7.164l11.305-43.391Zm-41.756-6.029.9-3.845,38,16.251-1.03,3.924Z" transform="translate(953.667 491.29)"/><path class="b" d="M547.64,256.488l-31.908-54.426.135-.116-2.231-3.066-45.321,39.287a16.289,16.289,0,0,0-6.163-11.477c-6.354-5.237-14.915-5.35-19.122-.246s-2.466,13.481,3.885,18.72,14.915,5.35,19.119.251l41.2-35.941,31.494,52.192-38.339,31.576a16.3,16.3,0,0,0-5.87-11.63c-6.222-5.392-14.778-5.723-19.111-.729s-2.8,13.418,3.412,18.816,14.775,5.725,19.111.732l50.909-42.2Z" transform="translate(569.635 415.566)"/><path class="a" d="M276.459,312.978,252.1,271.434l.1-.092L250.5,269,215.9,299a12.413,12.413,0,0,0-4.7-8.762c-4.851-4-11.387-4.083-14.6-.188s-1.886,10.291,2.966,14.292,11.382,4.083,14.593.19l31.454-27.438,24.042,39.841-29.265,24.1a12.44,12.44,0,0,0-4.484-8.873c-4.748-4.12-11.279-4.368-14.588-.56s-2.144,10.244,2.6,14.36,11.279,4.373,14.59.56l38.864-32.217Z" transform="translate(166.193 530.623)"/><path class="b" d="M504.018,90.562,458.99,117.21l-.1-.111-2.535,1.859,32.735,37.454a13.493,13.493,0,0,0-9.5,5.15c-4.32,5.292-4.384,12.393-.137,15.86s11.192,2,15.512-3.285,4.392-12.385.143-15.855l-29.946-34.05,43.177-26.3,26.321,31.692a13.489,13.489,0,0,0-9.626,4.907c-4.455,5.181-4.7,12.274-.541,15.853s11.139,2.282,15.594-2.9,4.7-12.269.541-15.85L505.46,89.561Z" transform="translate(619.266 253.199)"/><path class="a" d="M548.775,175.372,586.058,161.2l.055.1,2.147-1.07-19.727-32.381a10.291,10.291,0,0,0,7.8-2.638c3.932-3.409,4.9-8.736,2.163-11.891s-8.147-2.955-12.079.454-4.9,8.733-2.165,11.891l18.076,29.463-35.848,14.144-15.652-27.216a10.288,10.288,0,0,0,7.864-2.44c4.019-3.309,5.123-8.609,2.464-11.836s-8.07-3.158-12.087.151-5.121,8.609-2.464,11.836l20.957,36.176Z" transform="translate(708.157 271.501)"/><path class="a" d="M272.275,289.686l37.285-14.168.055.1,2.147-1.07-19.727-32.381a10.29,10.29,0,0,0,7.8-2.638c3.932-3.409,4.9-8.736,2.163-11.891s-8.147-2.955-12.079.454-4.9,8.736-2.165,11.891l18.073,29.463-35.846,14.147L254.333,256.37a10.277,10.277,0,0,0,7.864-2.44c4.019-3.309,5.123-8.606,2.464-11.833s-8.07-3.161-12.087.148-5.12,8.609-2.464,11.839l20.957,36.173Z" transform="translate(254.488 459.064)"/><path class="a" d="M774.24,200.688h0l-76.435,42.45-.008-.016-2.382,1.363L720.1,280.194a11.768,11.768,0,0,0-8.746,3.517c-4.27,4.159-5.023,10.3-1.685,13.737s9.5,2.836,13.769-1.323,5.028-10.3,1.69-13.729l-22.8-32.759,36.532-20.516,20.5,29.653a11.773,11.773,0,0,0-8.749,3.52c-4.267,4.157-5.02,10.3-1.685,13.732s9.5,2.839,13.774-1.315,5.023-10.3,1.687-13.732l-23.115-33.216L777.536,207.4l20.49,29.5a11.758,11.758,0,0,0-8.736,3.539c-4.262,4.17-5,10.323-1.658,13.74s9.515,2.818,13.769-1.352,5-10.315,1.658-13.735l-27.422-39.21Z" transform="translate(987.507 417.211)"/><path class="a" d="M558.592,322.012h0l-73.173,59.359-.013-.016-2.271,1.893,32.883,33.279a12.686,12.686,0,0,0-8.625,5.369c-3.753,5.213-3.4,11.878.782,14.9s10.616,1.231,14.371-3.982,3.4-11.873-.776-14.889l-30.334-30.5,34.935-28.61,27.306,27.633a12.691,12.691,0,0,0-8.627,5.371c-3.752,5.213-3.4,11.876.782,14.891s10.616,1.233,14.368-3.977,3.406-11.873-.776-14.889L528.675,356.92l34.673-28.4,27.271,27.475a12.667,12.667,0,0,0-8.614,5.392c-3.742,5.221-3.375,11.889.816,14.891s10.621,1.21,14.358-4.009,3.38-11.886-.811-14.891L559.926,320.9Z" transform="translate(639.203 615.764)"/><path class="a" d="M693.512,104.958h0l-96.5-23.479v-.021l-3.037-.7-6.921,48.828a13.361,13.361,0,0,0-10.014-3.808c-6.763.18-12.134,4.73-11.989,10.162s5.746,9.692,12.509,9.515,12.134-4.727,11.992-10.162l6.224-44.906,46.3,11.033-5.749,40.549a13.379,13.379,0,0,0-10.014-3.811c-6.763.18-12.134,4.73-11.989,10.159s5.738,9.7,12.507,9.52,12.137-4.724,12-10.159l6.3-45.532L691.085,113.1l-5.63,40.42a13.349,13.349,0,0,0-10.019-3.784c-6.768.2-12.129,4.753-11.971,10.185s5.759,9.681,12.53,9.494,12.118-4.759,11.968-10.185l7.336-53.864Z" transform="translate(773.599 221.76)"/><path class="a" d="M213.638,145.294h0l-8.3-99.092.018-.005-.3-3.108L156.492,52a13.356,13.356,0,0,0,.441-10.714c-2.313-6.367-8.342-10.03-13.452-8.165s-7.381,8.524-5.068,14.891,8.334,10.027,13.449,8.173l44.618-8.326,4.2,47.465-40.335,7.394A13.416,13.416,0,0,0,160.8,92c-2.319-6.372-8.34-10.022-13.455-8.168s-7.386,8.524-5.07,14.9,8.334,10.027,13.449,8.173l45.239-8.448,4.172,47.117-40.169,7.465a13.35,13.35,0,0,0,.412-10.716c-2.327-6.364-8.355-10.009-13.468-8.136s-7.365,8.54-5.036,14.912,8.355,10,13.465,8.136l53.476-10.112Z" transform="translate(72.106 142.793)"/><path class="c" d="M606.062,107.3c-6.676-24.2-6.037-38.191-4.764-46.414l-4.827-2.609-16.8,38.6a8.486,8.486,0,0,0-2.131,4.9l-15.72,36.113c-2.762-5.144-8.252-9.406-15.216-11.133-11.569-2.876-22.819,2.324-25.125,11.617s5.195,19.148,16.766,22.021,22.819-2.327,25.127-11.619l15.837-36.7a63.252,63.252,0,0,0,6.116,11.82,24.729,24.729,0,0,1,3.924,15.779c-.375.285-.747.557-1.106.79,0,0,.4-.143,1.077-.446-1,10.016-7.582,18.644-12.7,21.969,0,0,19.415-7.08,19.061-25.642C602.2,131.59,610.235,122.419,606.062,107.3ZM594.44,128.818c-5.054-18.324-5.915-30.783-5.485-39.332l.882-2.041c1.019,3.834,3.156,8.725,7.117,14.931,7.088,11.1,3.7,22.9-1.635,30.7A32.79,32.79,0,0,0,594.44,128.818Z" transform="translate(701.441 184.861)"/></g></svg>