<svg xmlns="http://www.w3.org/2000/svg" xmlns:xlink="http://www.w3.org/1999/xlink" width="46.421" height="50.208" viewBox="0 0 46.421 50.208"><defs><style>.a{fill:url(#a);}.b,.d{fill:none;stroke-width:2px;}.b{stroke:#91b508;}.b,.c,.d{stroke-miterlimit:10;}.c{fill:#145f2b;stroke:#145f2b;}.d{stroke:#fff;}</style><linearGradient id="a" x1="0.166" y1="0.918" x2="0.744" y2="0.195" gradientUnits="objectBoundingBox"><stop offset="0" stop-color="#165425"/><stop offset="0.224" stop-color="#227c26"/><stop offset="0.52" stop-color="#449b23"/><stop offset="0.828" stop-color="#91b508"/><stop offset="0.994" stop-color="#91b508"/><stop offset="1" stop-color="#91b508"/></linearGradient></defs><g transform="translate(-648.6 -358.415)"><g transform="translate(-257.733 123.128)"><path class="a" d="M957.337,279.692c25.479-21.895-12.626-42.741-16.229-43.421-.347-.065-.177.407-.184.76-.205,11.849-5.462,18.618-6.948,23.029-6.238,18.521,13.978,25.821,21.921,20.683" transform="translate(-14.239 0)"/><path class="b" d="M975.347,262.579c0-15.043-23.806-25.613-24.736-26.166a.47.47,0,0,0-.716.388c.044,1.347-.054,2.39-.035,3.468" transform="translate(-23.593 -0.044)"/><path class="b" d="M985.27,312.766a22.426,22.426,0,0,0,9.5-18.335" transform="translate(-43.012 -31.897)"/><path class="c" d="M919.686,266.915c1.432-8.6,7.027-9.511,6.809-21.817a22.458,22.458,0,1,0,9.89,43.591C927.029,287.45,917.342,280.984,919.686,266.915Z" transform="translate(0 -4.844)"/><path class="d" d="M961.966,256.826s5.355,4.791,6.106,11.648-4.652,7.358-3.053,17" transform="translate(-30.233 -11.275)"/></g></g></svg>